<?xml version="1.0" standalone="no"?>
<!DOCTYPE svg PUBLIC "-//W3C//DTD SVG 20010904//EN"
 "http://www.w3.org/TR/2001/REC-SVG-20010904/DTD/svg10.dtd">
<svg version="1.0" xmlns="http://www.w3.org/2000/svg"
 width="500.000000pt" height="500.000000pt" viewBox="0 0 500.000000 500.000000"
 preserveAspectRatio="xMidYMid meet">

<g transform="translate(0.000000,500.000000) scale(0.100000,-0.100000)"
fill="#000000" stroke="none">
<path d="M2175 3693 c48 -25 84 -64 95 -102 5 -20 10 -115 10 -213 l0 -176
-52 20 c-118 45 -169 48 -751 48 l-551 0 44 -22 c24 -13 52 -34 62 -48 35 -48
39 -125 36 -627 -3 -487 -3 -488 -26 -535 -18 -37 -34 -52 -75 -73 l-52 -26
580 4 c560 3 583 4 658 25 208 58 342 180 404 367 29 90 29 78 18 753 l-6 342
26 0 c19 0 25 5 25 21 0 20 1 20 403 17 389 -3 403 -4 442 -24 50 -27 69 -48
94 -104 l21 -45 0 208 0 207 -717 0 c-660 -1 -716 -2 -688 -17z m-259 -674
c116 -16 180 -44 240 -103 70 -70 95 -139 102 -275 10 -208 -52 -339 -192
-405 -81 -38 -152 -46 -418 -46 l-248 0 0 420 0 420 219 0 c121 0 254 -5 297
-11z"/>
<path d="M3308 3152 c-28 -61 -65 -75 -201 -80 l-118 -4 3 -122 3 -121 127 -5
c117 -5 128 -7 153 -30 15 -14 34 -38 41 -55 11 -26 13 2 14 213 0 133 -1 242
-2 242 -2 0 -11 -17 -20 -38z"/>
<path d="M2650 2945 l0 -126 138 3 137 3 3 123 3 122 -141 0 -140 0 0 -125z"/>
<path d="M1190 1630 l0 -182 95 4 c75 3 100 8 122 24 49 37 65 68 70 135 4 53
1 72 -19 109 -33 64 -72 83 -180 88 l-88 4 0 -182z m206 106 c32 -32 34 -38
34 -100 0 -113 -32 -146 -140 -146 l-60 0 0 140 0 140 66 0 c62 0 68 -2 100
-34z"/>
<path d="M1697 1803 c-4 -3 -7 -84 -7 -180 l0 -173 25 0 c25 0 25 1 25 80 l0
80 75 0 c60 0 75 3 75 15 0 12 -15 15 -75 15 l-75 0 0 65 0 65 80 0 c73 0 80
2 80 20 0 19 -7 20 -98 20 -54 0 -102 -3 -105 -7z"/>
<path d="M2001 1634 c-33 -97 -61 -178 -61 -181 0 -2 10 -3 22 -1 17 2 26 15
37 51 l15 47 76 0 76 0 15 -47 c11 -36 20 -49 37 -51 12 -2 22 0 22 5 0 4 -27
84 -60 177 -33 94 -60 171 -60 173 0 2 -13 3 -29 3 -28 0 -30 -3 -90 -176z
m122 43 c15 -46 27 -86 27 -90 0 -4 -27 -7 -60 -7 -33 0 -60 3 -60 7 0 16 55
173 60 173 3 0 18 -37 33 -83z"/>
<path d="M2345 1798 c-32 -17 -45 -39 -45 -78 0 -55 22 -77 100 -100 82 -25
110 -54 92 -96 -24 -51 -112 -55 -159 -7 -20 19 -28 22 -34 11 -11 -16 -11
-20 -1 -34 20 -30 59 -44 119 -44 78 0 111 24 120 86 7 57 -28 98 -100 114
-72 17 -97 34 -97 69 0 16 7 35 17 42 23 20 99 16 124 -7 17 -16 22 -16 29 -4
15 23 12 28 -20 45 -34 17 -116 19 -145 3z"/>
<path d="M2620 1630 c0 -173 1 -180 20 -180 19 0 20 7 20 90 l0 90 95 0 95 0
0 -90 c0 -83 1 -90 20 -90 19 0 20 7 20 180 0 173 -1 180 -20 180 -18 0 -20
-7 -20 -75 l0 -75 -95 0 -95 0 0 75 c0 68 -2 75 -20 75 -19 0 -20 -7 -20 -180z"/>
<path d="M3000 1630 c0 -173 1 -180 20 -180 19 0 20 7 20 180 0 173 -1 180
-20 180 -19 0 -20 -7 -20 -180z"/>
<path d="M3213 1794 c-55 -27 -78 -77 -78 -164 0 -87 19 -130 68 -160 44 -27
131 -27 175 0 99 61 94 272 -8 322 -43 22 -115 23 -157 2z m157 -52 c51 -51
50 -181 -2 -229 -51 -47 -142 -33 -172 26 -20 39 -21 143 -1 181 20 39 41 49
98 50 40 0 53 -5 77 -28z"/>
<path d="M3540 1631 c0 -174 1 -181 20 -181 19 0 20 7 20 147 0 124 2 145 13
133 8 -8 51 -75 96 -147 117 -188 121 -186 121 48 0 166 -1 180 -17 177 -16
-3 -19 -20 -23 -137 l-5 -133 -85 134 c-72 111 -90 134 -113 136 l-27 3 0
-180z"/>
<path d="M1363 1312 c-51 -8 -73 -102 -33 -142 22 -22 74 -27 86 -9 4 8 9 7
15 -2 6 -9 9 3 9 34 0 46 -1 47 -30 47 -16 0 -30 -4 -30 -10 0 -5 11 -10 25
-10 28 0 29 -3 15 -31 -12 -22 -59 -26 -78 -7 -19 19 -15 82 8 103 19 17 31
17 75 -1 17 -7 18 -6 7 8 -15 18 -38 25 -69 20z"/>
<path d="M1839 1308 c-49 -16 -64 -87 -28 -132 21 -27 71 -36 84 -16 4 6 -8
10 -29 10 -25 0 -38 6 -46 19 -14 28 -12 63 6 89 16 23 58 30 69 12 9 -14 27
-12 23 2 -6 17 -49 26 -79 16z"/>
<path d="M2473 1312 c-26 -4 -42 -47 -24 -65 6 -6 26 -16 43 -21 43 -14 46
-49 5 -54 -16 -2 -35 2 -43 9 -11 9 -14 8 -14 -4 0 -17 21 -27 59 -27 33 0 51
16 51 47 0 19 -10 28 -45 43 -46 20 -59 45 -29 57 8 3 27 0 41 -6 19 -9 24 -9
21 0 -5 16 -37 26 -65 21z"/>
<path d="M2869 1308 c-77 -26 -56 -158 25 -158 37 0 61 21 71 63 16 62 -38
115 -96 95z m51 -18 c23 -13 34 -59 21 -93 -9 -22 -17 -27 -45 -27 -25 0 -38
6 -46 19 -16 31 -12 69 10 91 23 23 33 24 60 10z"/>
<path d="M1490 1230 l0 -80 50 0 c28 0 50 5 50 10 0 6 -18 10 -40 10 -38 0
-40 2 -40 29 0 27 4 30 38 34 l37 4 -37 1 c-35 2 -38 4 -38 31 0 28 3 30 43
34 40 3 40 4 -10 5 l-53 2 0 -80z"/>
<path d="M1620 1230 c0 -97 18 -107 22 -13 l3 68 42 -68 c23 -37 47 -67 53
-67 6 0 10 31 10 80 0 47 -4 80 -10 80 -6 0 -10 -28 -10 -62 l0 -63 -40 63
c-55 87 -70 83 -70 -18z"/>
<path d="M1981 1258 c16 -29 29 -66 30 -83 1 -29 2 -29 8 6 4 19 19 56 33 82
30 54 18 65 -13 12 -12 -19 -22 -35 -24 -35 -2 0 -12 16 -24 35 -33 56 -42 40
-10 -17z"/>
<path d="M2160 1230 c0 -47 4 -80 10 -80 6 0 10 16 10 35 0 33 2 35 35 35 19
0 35 5 35 10 0 6 -16 10 -36 10 -33 0 -35 2 -32 28 3 23 9 28 43 33 39 6 39 6
-12 8 l-53 1 0 -80z"/>
<path d="M2310 1243 c-13 -37 -25 -74 -28 -80 -2 -7 0 -13 6 -13 5 0 12 9 15
20 4 15 14 20 42 20 28 0 38 -5 42 -20 5 -19 23 -29 23 -12 0 4 -11 39 -23 78
-32 93 -49 95 -77 7z m60 -20 c0 -7 -12 -13 -26 -13 -20 0 -25 4 -20 16 3 9 9
28 13 42 l6 27 13 -30 c7 -16 13 -36 14 -42z"/>
<path d="M2590 1230 c0 -47 4 -80 10 -80 6 0 10 18 10 40 l0 40 40 0 40 0 0
-40 c0 -22 5 -40 10 -40 6 0 10 33 10 80 0 47 -4 80 -10 80 -5 0 -10 -13 -10
-30 0 -28 -2 -30 -40 -30 -38 0 -40 2 -40 30 0 17 -4 30 -10 30 -6 0 -10 -33
-10 -80z"/>
<path d="M2760 1230 c0 -47 4 -80 10 -80 6 0 10 33 10 80 0 47 -4 80 -10 80
-6 0 -10 -33 -10 -80z"/>
<path d="M3010 1230 c0 -94 18 -108 22 -17 l3 62 38 -62 c21 -35 43 -63 48
-63 5 0 9 36 9 80 0 91 -17 109 -22 23 l-3 -58 -35 57 c-49 80 -60 76 -60 -22z"/>
<path d="M3240 1230 c0 -47 4 -80 10 -80 6 0 10 18 10 40 l0 40 40 0 40 0 0
-40 c0 -22 5 -40 10 -40 6 0 10 33 10 80 0 47 -4 80 -10 80 -5 0 -10 -13 -10
-30 0 -28 -2 -30 -40 -30 -38 0 -40 2 -40 30 0 17 -4 30 -10 30 -6 0 -10 -33
-10 -80z"/>
<path d="M3410 1246 c0 -73 14 -96 60 -96 46 0 60 23 60 96 0 85 -18 82 -22
-3 l-3 -68 -35 0 -35 0 -3 68 c-4 85 -22 88 -22 3z"/>
<path d="M3580 1230 l0 -80 44 0 c48 0 76 19 76 50 0 11 -7 23 -16 28 -14 8
-14 12 -3 30 20 31 -3 52 -57 52 l-44 0 0 -80z m74 64 c22 -8 20 -31 -3 -44
-35 -18 -51 -12 -51 20 0 31 17 38 54 24z m16 -79 c20 -24 4 -45 -35 -45 -32
0 -35 2 -35 30 0 26 3 30 29 30 16 0 34 -7 41 -15z"/>
<path d="M1860 1231 c0 -6 12 -11 26 -11 22 0 25 -4 21 -21 -7 -24 1 -49 15
-49 5 0 8 19 6 43 -3 39 -5 42 -35 45 -19 2 -33 -1 -33 -7z"/>
</g>
</svg>
