<?xml version="1.0" encoding="UTF-8"?>
<svg width="200" height="200" version="1.1" viewBox="0 0 200 200" xmlns="http://www.w3.org/2000/svg">
 <circle cx="100" cy="100" r="100" fill="#e9ecef"/>
 <g transform="matrix(4.1667 0 0 4.1667 100 100)">
  <path d="m0-20c-5.523 0-10 4.477-10 10v0.364c0 4.932 2.467 9.55 6.572 12.293l0.428 0.286v5.057h6v-5.057l0.428-0.286c4.105-2.743 6.572-7.362 6.572-12.293v-0.364c0-5.523-4.477-10-10-10zm0 2c4.418 0 8 3.582 8 8v0.364c0 4.015-2.011 7.781-5.357 10.021l-0.643 0.429v3.186h-4v-3.186l-0.643-0.429c-3.346-2.24-5.357-6.006-5.357-10.021v-0.364c0-4.418 3.582-8 8-8z" fill="#adb5bd" stroke-width="2"/>
 </g>
</svg>